<?xml version="1.0" encoding="utf-8"?>
<!-- Generator: Adobe Illustrator 26.5.0, SVG Export Plug-In . SVG Version: 6.00 Build 0)  -->
<svg version="1.1" id="Layer_1" xmlns="http://www.w3.org/2000/svg" xmlns:xlink="http://www.w3.org/1999/xlink" x="0px" y="0px"
	 viewBox="0 0 20.3 20" style="enable-background:new 0 0 20.3 20;" xml:space="preserve">
<style type="text/css">
	.st0{display:none;}
	.st1{display:inline;}
	.st2{font-family:'OpenSans';}
	.st3{font-size:12px;}
	.st4{font-size:24px;}
	.st5{display:inline;fill:#FFFFFF;stroke:#000000;stroke-miterlimit:10;}
	.st6{display:inline;fill:#FFFFFF;stroke:#666666;stroke-miterlimit:10;}
	.st7{display:inline;fill:#FFFFFF;stroke:#CCCCCC;stroke-miterlimit:10;}
	.st8{display:inline;fill:none;stroke:#000000;stroke-width:0.75;stroke-miterlimit:10;}
	.st9{display:inline;fill:none;stroke:#666666;stroke-width:0.75;stroke-miterlimit:10;}
	.st10{display:inline;fill:none;stroke:#CCCCCC;stroke-width:0.75;stroke-miterlimit:10;}
	.st11{font-family:'SquareBox';}
	.st12{display:inline;fill:none;stroke:#000000;stroke-width:0.5;stroke-miterlimit:10;}
	.st13{fill:none;stroke:#4D4D4D;stroke-width:0.923;stroke-miterlimit:10;}
</style>
<g id="Layer_1_00000118391681178809726610000013038765629930315187_" class="st0">
	<text transform="matrix(1 0 0 1 12.4399 10.2197)" class="st1 st2 st3">asa</text>
	<text transform="matrix(1 0 0 1 12.1098 18.74)" class="st1 st2 st3">uadros</text>
	<text transform="matrix(1 0 0 1 -1.7093 18.7402)" class="st1 st2 st4">C</text>
	<rect x="33.9" y="4.9" class="st5" width="4" height="4"/>
	<rect x="40.1" y="4.9" class="st6" width="4" height="4"/>
	<rect x="46.3" y="4.9" class="st7" width="4" height="4"/>
</g>
<g id="Layer_1_copy" class="st0">
	<text transform="matrix(1 0 0 1 3.9778 10.0002)" class="st1 st2 st3">Casa</text>
	<text transform="matrix(1 0 0 1 3.9778 19.5205)" class="st1 st2 st3">Cuadros</text>
	<rect x="34.5" y="4.9" class="st8" width="4" height="4"/>
	<rect x="40.2" y="4.9" class="st9" width="4" height="4"/>
	<rect x="45.9" y="4.9" class="st10" width="4" height="4"/>
</g>
<g id="Layer_1_copy_2" class="st0">
	<text transform="matrix(1 0 0 1 3.9779 11.0002)" class="st1 st11 st3">casa</text>
	<text transform="matrix(1 0 0 1 3.9779 16.0369)" class="st1 st11 st3">cdrs</text>
	<line class="st12" x1="4.7" y1="6" x2="20.5" y2="6"/>
	<line class="st12" x1="4.7" y1="11" x2="20.5" y2="11"/>
	<line class="st12" x1="4.7" y1="16" x2="12.8" y2="16"/>
	<line class="st12" x1="16.1" y1="16" x2="20.5" y2="16"/>
	<line class="st12" x1="20.2" y1="5.7" x2="20.2" y2="11.2"/>
	<line class="st12" x1="20.2" y1="13.5" x2="20.2" y2="16.3"/>
	<line class="st12" x1="12.6" y1="5.7" x2="12.6" y2="16.3"/>
	<line class="st12" x1="5" y1="5.7" x2="5" y2="16.3"/>
	<line class="st12" x1="16.4" y1="8.9" x2="16.4" y2="13.5"/>
	<line class="st12" x1="8.8" y1="13.5" x2="8.8" y2="16.3"/>
	<line class="st12" x1="8.8" y1="8.5" x2="8.8" y2="11.2"/>
	<line class="st12" x1="16.1" y1="13.5" x2="20.5" y2="13.5"/>
	<line class="st12" x1="8.5" y1="13.6" x2="12.1" y2="13.6"/>
	<line class="st12" x1="8.5" y1="8.7" x2="12.1" y2="8.7"/>
	<line class="st12" x1="16.4" y1="8.5" x2="16.4" y2="11.2"/>
	<line class="st12" x1="12.7" y1="8.7" x2="16.3" y2="8.7"/>
	<line class="st12" x1="16.1" y1="8.7" x2="19.7" y2="8.7"/>
</g>
<g id="Layer_1_copy_3">
	<line class="st13" x1="0.1" y1="0.5" x2="20.1" y2="0.5"/>
	<line class="st13" x1="0.1" y1="10" x2="20.1" y2="10"/>
	<line class="st13" x1="0.1" y1="19.5" x2="10.5" y2="19.5"/>
	<line class="st13" x1="14.7" y1="19.5" x2="20.1" y2="19.5"/>
	<line class="st13" x1="19.8" y1="0" x2="19.8" y2="10.5"/>
	<line class="st13" x1="19.8" y1="14.8" x2="19.8" y2="20"/>
	<line class="st13" x1="10.1" y1="0" x2="10.1" y2="20"/>
	<line class="st13" x1="0.5" y1="0" x2="0.5" y2="20"/>
	<line class="st13" x1="15" y1="6" x2="15" y2="14.8"/>
	<line class="st13" x1="5.3" y1="14.8" x2="5.3" y2="20"/>
	<line class="st13" x1="5.3" y1="5.2" x2="5.3" y2="10.5"/>
	<line class="st13" x1="14.5" y1="14.8" x2="20.3" y2="14.8"/>
	<line class="st13" x1="4.8" y1="14.8" x2="9.4" y2="14.8"/>
	<line class="st13" x1="4.8" y1="5.7" x2="9.4" y2="5.7"/>
	<line class="st13" x1="15" y1="5.2" x2="15" y2="10.5"/>
	<line class="st13" x1="10.3" y1="5.7" x2="14.8" y2="5.7"/>
	<line class="st13" x1="14.5" y1="5.7" x2="19.1" y2="5.7"/>
</g>
</svg>
