<?xml version="1.0" encoding="utf-8"?>
<!-- Generator: Adobe Illustrator 25.0.0, SVG Export Plug-In . SVG Version: 6.00 Build 0)  -->
<svg version="1.1" id="Layer_1" xmlns="http://www.w3.org/2000/svg" xmlns:xlink="http://www.w3.org/1999/xlink" x="0px" y="0px"
	 viewBox="0 0 20.274 20" style="enable-background:new 0 0 20.274 20;" xml:space="preserve">
<style type="text/css">
	.st0{display:none;}
	.st1{display:inline;}
	.st2{font-family:'OpenSans';}
	.st3{font-size:12px;}
	.st4{font-size:24px;}
	.st5{display:inline;fill:#FFFFFF;stroke:#000000;stroke-miterlimit:10;}
	.st6{display:inline;fill:#FFFFFF;stroke:#666666;stroke-miterlimit:10;}
	.st7{display:inline;fill:#FFFFFF;stroke:#CCCCCC;stroke-miterlimit:10;}
	.st8{display:inline;fill:none;stroke:#000000;stroke-width:0.75;stroke-miterlimit:10;}
	.st9{display:inline;fill:none;stroke:#666666;stroke-width:0.75;stroke-miterlimit:10;}
	.st10{display:inline;fill:none;stroke:#CCCCCC;stroke-width:0.75;stroke-miterlimit:10;}
	.st11{font-family:'SquareBox';}
	.st12{display:inline;fill:none;stroke:#000000;stroke-width:0.5;stroke-miterlimit:10;}
	.st13{fill:none;stroke:#FFFFFF;stroke-width:0.923;stroke-miterlimit:10;}
</style>
<g id="Layer_1_1_" class="st0">
	<text transform="matrix(1 0 0 1 12.4399 10.2197)" class="st1 st2 st3">asa</text>
	<text transform="matrix(1 0 0 1 12.1098 18.74)" class="st1 st2 st3">uadros</text>
	<text transform="matrix(1 0 0 1 -1.7093 18.7402)" class="st1 st2 st4">C</text>
	<rect x="33.858" y="4.929" class="st5" width="4.032" height="4.032"/>
	<rect x="40.064" y="4.929" class="st6" width="4.032" height="4.032"/>
	<rect x="46.27" y="4.929" class="st7" width="4.032" height="4.032"/>
</g>
<g id="Layer_1_copy" class="st0">
	<text transform="matrix(1 0 0 1 3.9778 10.0002)" class="st1 st2 st3">Casa</text>
	<text transform="matrix(1 0 0 1 3.9778 19.5205)" class="st1 st2 st3">Cuadros</text>
	<rect x="34.511" y="4.929" class="st8" width="4.032" height="4.032"/>
	<rect x="40.213" y="4.929" class="st9" width="4.032" height="4.032"/>
	<rect x="45.915" y="4.929" class="st10" width="4.032" height="4.032"/>
</g>
<g id="Layer_1_copy_2" class="st0">
	<text transform="matrix(1 0 0 1 3.9779 11.0002)" class="st1 st11 st3">casa</text>
	<text transform="matrix(1 0 0 1 3.9779 16.0369)" class="st1 st11 st3">cdrs</text>
	<line class="st12" x1="4.698" y1="5.963" x2="20.466" y2="5.963"/>
	<line class="st12" x1="4.698" y1="11" x2="20.466" y2="11"/>
	<line class="st12" x1="4.698" y1="16.037" x2="12.831" y2="16.037"/>
	<line class="st12" x1="16.143" y1="16.037" x2="20.466" y2="16.037"/>
	<line class="st12" x1="20.207" y1="5.72" x2="20.207" y2="11.24"/>
	<line class="st12" x1="20.207" y1="13.517" x2="20.207" y2="16.277"/>
	<line class="st12" x1="12.582" y1="5.72" x2="12.582" y2="16.277"/>
	<line class="st12" x1="4.952" y1="5.722" x2="4.952" y2="16.278"/>
	<line class="st12" x1="16.395" y1="8.863" x2="16.395" y2="13.517"/>
	<line class="st12" x1="8.764" y1="13.517" x2="8.764" y2="16.277"/>
	<line class="st12" x1="8.764" y1="8.48" x2="8.764" y2="11.24"/>
	<line class="st12" x1="16.143" y1="13.517" x2="20.466" y2="13.517"/>
	<line class="st12" x1="8.512" y1="13.553" x2="12.148" y2="13.553"/>
	<line class="st12" x1="8.512" y1="8.729" x2="12.111" y2="8.729"/>
	<line class="st12" x1="16.395" y1="8.48" x2="16.395" y2="11.24"/>
	<line class="st12" x1="12.689" y1="8.729" x2="16.288" y2="8.729"/>
	<line class="st12" x1="16.143" y1="8.729" x2="19.742" y2="8.729"/>
</g>
<g id="Layer_1_copy_3">
	<line class="st13" x1="0.141" y1="0.459" x2="20.141" y2="0.459"/>
	<line class="st13" x1="0.141" y1="10.001" x2="20.141" y2="10.001"/>
	<line class="st13" x1="0.141" y1="19.543" x2="10.457" y2="19.543"/>
	<line class="st13" x1="14.658" y1="19.543" x2="20.141" y2="19.543"/>
	<line class="st13" x1="19.813" y1="0" x2="19.813" y2="10.462"/>
	<line class="st13" x1="19.813" y1="14.769" x2="19.813" y2="19.998"/>
	<line class="st13" x1="10.141" y1="0" x2="10.141" y2="19.998"/>
	<line class="st13" x1="0.463" y1="0.002" x2="0.463" y2="20"/>
	<line class="st13" x1="14.978" y1="5.954" x2="14.978" y2="14.769"/>
	<line class="st13" x1="5.299" y1="14.769" x2="5.299" y2="19.998"/>
	<line class="st13" x1="5.299" y1="5.227" x2="5.299" y2="10.456"/>
	<line class="st13" x1="14.517" y1="14.769" x2="20.274" y2="14.769"/>
	<line class="st13" x1="4.837" y1="14.838" x2="9.449" y2="14.838"/>
	<line class="st13" x1="4.838" y1="5.688" x2="9.403" y2="5.688"/>
	<line class="st13" x1="14.978" y1="5.227" x2="14.978" y2="10.456"/>
	<line class="st13" x1="10.277" y1="5.688" x2="14.842" y2="5.688"/>
	<line class="st13" x1="14.517" y1="5.688" x2="19.082" y2="5.688"/>
</g>
</svg>
